PathFileType	4	(X/Y/Z)	C:/Users/opensim2020/Desktop/walking_exp_matlab/subject03_walking07_straight_01.trc	
DataRate	CameraRate	NumFrames	NumMarkers	Units	OrigDataRate	OrigDataStartFrame	OrigNumFrames	
100.00	100.00	5	46	mm	100.00	703	310	
Frame#	Time	LFHD			RFHD			LBHD			RBHD			C7			T10			CLAV			STRN			RBAK			LSHO			LUPA			LELB			LFRM			LWRA			LWRB			LFIN			RSHO			RUPA			RELB			RFRM			RWRA			RWRB			RFIN			LASI			RASI			LPSI			RPSI			LTHI			LKNE			LTIB			LANK			LHEE			LTOE			RTHI			RKNE			RTIB			RANK			RHEE			RTOE			*39			*40			*41			*42			*43			*44			*45			
		X1	Y1	Z1	X2	Y2	Z2	X3	Y3	Z3	X4	Y4	Z4	X5	Y5	Z5	X6	Y6	Z6	X7	Y7	Z7	X8	Y8	Z8	X9	Y9	Z9	X10	Y10	Z10	X11	Y11	Z11	X12	Y12	Z12	X13	Y13	Z13	X14	Y14	Z14	X15	Y15	Z15	X16	Y16	Z16	X17	Y17	Z17	X18	Y18	Z18	X19	Y19	Z19	X20	Y20	Z20	X21	Y21	Z21	X22	Y22	Z22	X23	Y23	Z23	X24	Y24	Z24	X25	Y25	Z25	X26	Y26	Z26	X27	Y27	Z27	X28	Y28	Z28	X29	Y29	Z29	X30	Y30	Z30	X31	Y31	Z31	X32	Y32	Z32	X33	Y33	Z33	X34	Y34	Z34	X35	Y35	Z35	X36	Y36	Z36	X37	Y37	Z37	X38	Y38	Z38	X39	Y39	Z39	X40	Y40	Z40	X41	Y41	Z41	X42	Y42	Z42	X43	Y43	Z43	X44	Y44	Z44	X45	Y45	Z45	X46	Y46	Z46	

39	0.380	1337.92578	-1076.66882	1635.03528	1470.84167	-1081.43787	1636.61877	1337.60840	-1196.83899	1572.52625	1468.42346	-1197.64575	1574.95007	1392.79895	-1216.28296	1427.73889	1400.96350	-1277.78210	1122.85742	1399.35583	-1098.05212	1345.02161	1396.98376	-1067.46008	1175.83496	1493.97241	-1281.00269	1261.72559	1242.53369	-1132.54431	1380.10010	1169.59619	-1128.46948	1185.25415	1157.67480	-1112.25500	1063.59705	1159.59399	-1078.44153	937.31287	1188.97180	-1060.76416	818.83783	1134.44214	-1071.25964	825.98590	1143.79529	-1053.08740	743.40607	1556.82434	-1143.70056	1375.48157	1638.53992	-1150.75989	1156.98547	1656.39233	-1135.75769	1045.95728	1663.50488	-1115.38403	910.76917	1631.10583	-1081.86340	815.89569	1674.74414	-1113.19507	810.80591	1668.47449	-1087.02173	741.71576	1287.65527	-1127.22278	946.91833	1523.25769	-1130.44275	944.31024	1335.86963	-1287.55774	980.94226	1484.81946	-1287.97620	983.57050	1243.42932	-1189.91626	650.51678	1285.57703	-1180.45605	475.60538	1275.05688	-1219.75439	282.74326	1309.77661	-1220.58875	70.76243	1344.42126	-1261.37378	34.74453	1333.04663	-1068.34851	36.09014	1579.03296	-1159.22424	649.78186	1562.47913	-1111.48279	474.92245	1565.54199	-1243.13892	337.46939	1523.51636	-1390.02966	180.97751	1467.22766	-1441.81445	178.11473	1522.97827	-1310.12292	65.60022	1388.08801	-1169.12524	1682.75000																		 
40	0.390	1337.86792	-1069.83350	1635.08801	1470.90393	-1074.84363	1636.63550	1337.45349	-1190.03137	1572.72144	1468.39197	-1191.22888	1575.13770	1392.22546	-1210.12451	1427.89185	1400.19165	-1271.44043	1122.98022	1399.23950	-1091.99377	1345.04956	1396.55994	-1061.31897	1175.93982	1493.01990	-1275.04639	1261.81348	1242.32227	-1125.73804	1380.48767	1168.94238	-1119.91980	1186.20605	1156.74329	-1101.65356	1064.74316	1158.76013	-1065.79370	939.28583	1188.37842	-1045.73413	821.37976	1133.73645	-1056.58362	828.04987	1142.95886	-1035.63965	746.42480	1556.43494	-1138.09521	1375.53711	1638.06018	-1146.79126	1157.16162	1655.93115	-1132.40967	1046.00220	1662.96350	-1112.29883	910.75061	1630.70142	-1078.60681	815.78687	1674.11572	-1110.51343	810.75928	1667.81812	-1084.47485	741.61157	1286.70227	-1121.21680	946.64728	1522.43481	-1123.89990	944.90955	1335.47449	-1281.29492	980.96252	1484.36023	-1281.37915	984.00867	1243.37073	-1185.03027	650.15808	1285.50488	-1176.63257	475.31625	1275.40552	-1217.12927	282.62454	1310.11511	-1220.29883	70.82562	1344.60010	-1261.30847	34.76947	1333.10669	-1068.18628	36.03608	1577.88062	-1148.21350	650.94574	1560.28943	-1097.29431	476.84647	1563.49463	-1225.45813	336.04645	1521.77344	-1368.73132	175.93713	1465.96228	-1420.96533	171.40903	1519.88770	-1283.92664	63.97104	1387.98914	-1162.38904	1683.05090																		 
41	0.400	1337.97363	-1063.05444	1635.18311	1470.93530	-1068.04749	1636.47705	1337.40063	-1183.42346	1573.12952	1468.37610	-1184.68201	1575.27905	1391.74011	-1204.14893	1427.97644	1399.35278	-1264.95447	1122.94788	1399.00903	-1085.70508	1345.21326	1396.24500	-1054.96643	1176.03577	1492.07532	-1269.03247	1261.73975	1242.22180	-1118.95996	1380.84937	1168.27551	-1111.55151	1187.12488	1155.59021	-1091.70972	1066.01196	1157.83716	-1053.34424	941.21338	1187.68323	-1031.09534	823.78931	1133.21362	-1041.87561	830.23175	1142.26038	-1018.37341	749.56177	1556.12317	-1132.72131	1375.56421	1637.57214	-1142.62439	1157.11682	1655.68481	-1129.16077	1046.08240	1662.39087	-1109.18188	910.60950	1630.34631	-1075.46033	815.66895	1673.27881	-1107.69336	810.55237	1667.06787	-1081.38220	741.03595	1285.80090	-1115.06055	946.40912	1521.81201	-1117.34607	945.28894	1335.16589	-1275.02979	980.96960	1484.02429	-1274.74927	984.30450	1243.00781	-1180.41296	649.98639	1285.32117	-1172.87463	475.14081	1275.12280	-1215.06384	282.80460	1310.38611	-1220.04272	70.84969	1344.69873	-1261.19556	34.70552	1333.16907	-1068.03711	36.01497	1575.34351	-1135.60889	651.09796	1558.07739	-1083.44910	478.85440	1561.50366	-1207.96179	334.54303	1520.04236	-1346.86218	170.49080	1464.64587	-1399.39038	164.01175	1517.25330	-1257.20837	62.24309	1388.14636	-1155.50378	1683.16370																		 
42	0.410	1338.27356	-1056.17615	1635.32458	1471.26355	-1061.34692	1636.41162	1337.47009	-1176.67944	1573.50317	1468.27441	-1177.94604	1575.45020	1391.36633	-1197.89954	1428.00537	1398.48132	-1258.40552	1122.89270	1398.87354	-1079.59009	1345.29517	1395.83801	-1048.60645	1176.20618	1491.11475	-1262.97510	1261.50256	1242.12244	-1112.32776	1381.27490	1167.44250	-1103.59387	1188.07983	1154.58643	-1081.83569	1067.32825	1157.13428	-1040.96521	943.26733	1187.28040	-1016.14325	826.54492	1132.83362	-1027.36133	832.50122	1141.85583	-1001.16711	752.90533	1555.93237	-1127.11206	1375.47400	1637.08948	-1138.40356	1156.98438	1655.35266	-1125.80261	1045.85388	1661.77148	-1106.07788	910.35895	1630.07922	-1072.19263	815.74994	1672.51306	-1105.05090	810.28687	1666.08923	-1078.85217	740.50049	1285.09155	-1108.77869	946.11627	1521.18787	-1110.60681	945.55084	1334.93982	-1268.63123	980.99011	1483.66003	-1268.15430	984.54248	1242.87329	-1175.14929	649.58270	1285.34973	-1168.88831	474.84991	1275.18555	-1212.63208	282.80188	1310.60730	-1219.87720	70.92805	1344.82373	-1261.21545	34.81609	1333.20679	-1067.97009	35.97870	1575.07312	-1125.82263	652.62177	1555.88196	-1070.00720	480.86414	1559.47034	-1190.44788	332.87369	1518.21887	-1324.12854	164.25491	1463.20044	-1376.95837	155.80609	1514.31860	-1230.00830	59.98895	1388.37415	-1148.55212	1683.19128																		 
43	0.420	1338.68689	-1049.25195	1635.46924	1471.81995	-1054.74622	1636.24585	1337.64355	-1170.06104	1574.00317	1468.46863	-1171.42383	1575.63049	1391.04712	-1191.64319	1428.00110	1397.65198	-1251.78577	1122.77002	1398.86060	-1073.43958	1345.37439	1395.68274	-1042.04333	1176.38318	1490.23914	-1256.91467	1261.14856	1242.07507	-1105.78467	1381.61572	1166.92371	-1095.18481	1188.94043	1153.79492	-1071.38757	1068.42920	1156.40454	-1028.82056	945.28705	1186.90637	-1001.40045	829.37000	1132.59106	-1012.83911	834.83679	1141.57092	-984.24823	756.31427	1555.77686	-1121.82983	1375.39355	1636.62378	-1134.10242	1156.78186	1654.97913	-1122.30884	1045.64075	1661.16968	-1102.94080	909.96527	1629.47412	-1068.84607	815.31702	1671.86755	-1102.50061	810.02063	1665.27283	-1076.30176	740.26910	1284.51123	-1102.27258	945.85168	1520.67236	-1103.99719	945.64203	1334.68982	-1262.01575	980.91949	1483.28320	-1261.50208	984.67053	1242.84082	-1169.86279	649.33997	1285.31506	-1165.10742	474.56781	1275.54321	-1210.07947	282.69357	1310.80688	-1219.70764	71.06047	1344.89905	-1261.14307	34.76411	1332.88403	-1068.05139	35.63008	1574.11023	-1115.42737	653.60925	1553.84534	-1057.00574	482.76425	1557.54016	-1172.94434	330.98428	1516.36108	-1300.83313	157.65787	1461.39307	-1353.25391	146.89906	1511.55981	-1202.34937	57.85020	1388.96179	-1141.68286	1683.75537																		 
